<svg width="85" height="39" viewBox="0 0 85 39" fill="none" xmlns="http://www.w3.org/2000/svg">
<path d="M26.7867 0.0175806C26.7867 0 19.5081 0.0175806 19.5081 0.0175806C8.73424 0.0175806 0 8.73993 0 19.4991C0 30.2583 8.73424 38.9807 19.5081 38.9807L33.1935 38.9692C36.6316 38.9692 39.4188 36.2076 39.4188 32.774L39.426 20.8917L48.8852 35.791C50.1644 37.7245 52.3604 39 54.8547 39C58.8034 39 62.0047 35.8032 62.0047 31.8598L62.0026 20.8916L71.4617 35.7909C72.741 37.7243 74.9369 38.9999 77.4313 38.9999C81.38 38.9999 84.5813 35.8031 84.5813 31.8597L84.5791 0H79.712V31.86C79.712 33.1179 78.691 34.1375 77.4314 34.1375C76.6442 34.1375 75.9501 33.7394 75.5404 33.1334L58.704 6.64983C58.5997 6.49828 58.4495 6.38404 58.2755 6.32381C58.1015 6.26359 57.9128 6.26054 57.7369 6.31511C57.5611 6.36968 57.4073 6.47901 57.2981 6.62711C57.1889 6.77521 57.1301 6.95431 57.1301 7.13822L57.1355 31.8602C57.1355 33.118 56.1144 34.1377 54.8549 34.1377C54.0677 34.1377 53.3737 33.7395 52.9638 33.1336L36.1275 6.64983C36.0231 6.49831 35.873 6.3841 35.6989 6.32389C35.5249 6.26368 35.3362 6.26064 35.1604 6.31521C34.9845 6.36977 34.8307 6.47908 34.7215 6.62716C34.6123 6.77524 34.5534 6.95432 34.5534 7.13822L34.5497 32.7742C34.5497 33.5222 33.9426 34.1283 33.1936 34.1283L19.5082 34.1181C11.4235 34.118 4.86935 27.5727 4.86935 19.4991C4.86935 11.4255 11.4235 4.88018 19.5081 4.88018L26.7867 4.87481V0.0175806Z" fill="#392C15"/>
<path d="M27.5878 28.0083C27.7714 28.0083 27.9475 27.935 28.0774 27.8045C28.2072 27.674 28.2802 27.497 28.2802 27.3125L28.282 7.17404C28.2819 3.21213 31.4782 0 35.4208 0C37.9202 0 40.1198 1.29086 41.3952 3.24532L50.8071 18.0825L50.824 7.17417C50.824 3.21213 54.0202 0 57.963 0C60.4624 0 62.6618 1.29086 63.9373 3.24532L73.3491 18.0825V0.00212972H78.2422L78.2335 32.0136C78.2334 32.1954 78.1765 32.3724 78.0707 32.5198C77.965 32.6672 77.8158 32.7775 77.6442 32.8349C77.4727 32.8923 77.2875 32.8941 77.1149 32.8399C76.9423 32.7858 76.791 32.6784 76.6825 32.5331L59.8511 5.8947C59.442 5.2861 58.749 4.88584 57.963 4.88584C56.7054 4.88584 55.6858 5.91036 55.6858 7.17417L55.6913 32.0136C55.6912 32.1954 55.6343 32.3724 55.5285 32.5198C55.4227 32.6672 55.2735 32.7774 55.102 32.8348C54.9304 32.8923 54.7453 32.894 54.5727 32.8399C54.4001 32.7857 54.2488 32.6784 54.1403 32.5331L37.3091 5.8947C36.8999 5.2861 36.207 4.88584 35.4208 4.88584C34.1634 4.88584 33.1438 5.91036 33.1438 7.17417L33.1541 32.2105C33.1541 32.395 33.0811 32.572 32.9513 32.7025C32.8214 32.8329 32.6453 32.9062 32.4617 32.9062L19.5369 32.9036C12.2463 32.9036 6.33594 26.9205 6.33594 19.5941C6.33594 12.2676 12.2463 6.28432 19.5369 6.28432C19.5369 6.28432 26.8044 6.25588 26.8044 6.28432V11.2194L19.5369 11.2139C14.9314 11.2139 11.1979 14.9658 11.1979 19.5941C11.1979 24.2221 14.9314 28.0178 19.5369 28.0178L27.5878 28.0083Z" fill="#392C15"/>
</svg>
